<svg width="233" height="326" viewBox="0 0 233 326" fill="none" xmlns="http://www.w3.org/2000/svg">
<path d="M46.7532 57L0.753235 76.4044V314.581V326H46.7532V193.5V57Z" fill="white"/>
<path d="M46.7532 57L145.753 90.5V314.581V326H46.7532V193.5V57Z" fill="#00B8D9"/>
<path d="M46.6925 97.5L148.067 126.419L148.1 128.929L46.6925 99.9702L46.6925 97.5Z" fill="white"/>
<path d="M46.6028 147L147.978 175.919L148.011 178.429L46.6028 149.47L46.6028 147Z" fill="white"/>
<path d="M46.7532 97.5L0.927612 113L0.927612 115.5L46.7532 100L46.7532 97.5Z" fill="#00B8D9"/>
<path d="M46.838 147L0.927614 163L0.927614 165L46.838 149.5L46.838 147Z" fill="#00B8D9"/>
<path d="M46.838 199L0.927614 214.5L0.927614 217L46.838 201.5L46.838 199Z" fill="#00B8D9"/>
<path d="M46.838 250L0.927614 265.5L0.927554 267.5L46.838 252.5L46.838 250Z" fill="#00B8D9"/>
<path d="M46.6028 199L147.978 227.919L148.011 230.429L46.6028 201.47L46.6028 199Z" fill="white"/>
<path d="M46.6028 250L147.978 278.919L148.011 281.429L46.6028 252.47L46.6028 250Z" fill="white"/>
<path d="M147.928 0.5L230.428 33V113V326H147.928V0.5Z" fill="#00B8D9"/>
<path d="M148.428 0L99.4276 19.5285V311.978V326H148.428V0Z" fill="white"/>
<path d="M134.928 21.5L230.428 52L230.428 55L142.928 26.5L134.928 21.5Z" fill="white"/>
<path d="M143.428 77.5L230.428 102.5L230.428 105L142.919 79.4975L143.428 77.5Z" fill="white"/>
<path d="M132.068 128.045L230.428 156L230.428 158.5L131.525 129.97L132.068 128.045Z" fill="white"/>
<path d="M148.428 26L99.4276 42.5L99.4276 44.5L148.428 28V26Z" fill="#00B8D9"/>
<path d="M148.428 79L99.2006 95.5L99.2006 97.5L148.428 81V79Z" fill="#00B8D9"/>
<path d="M148.428 132.5L99.2006 149.5L99.2006 151.5L148.428 135L148.428 132.5Z" fill="#00B8D9"/>
<path d="M141.427 184.97L230.428 211L230.428 213.5L141.428 187L141.427 184.97Z" fill="white"/>
<path d="M140.254 238L230.428 264.5L230.428 267L140.254 240.03L140.254 238Z" fill="white"/>
<path d="M148.428 187L99.2006 203.5L99.2006 205.5L148.428 189V187Z" fill="#00B8D9"/>
<path d="M148.428 240.5L99.2006 256.5L99.2006 258.5L148.428 242.5L148.428 240.5Z" fill="#00B8D9"/>
</svg>
